<mxfile host="app.diagrams.net" modified="2024-01-14T17:04:29.838Z" agent="Mozilla/5.0 (Windows NT 10.0; Win64; x64) AppleWebKit/537.36 (KHTML, like Gecko) Chrome/120.0.0.0 Safari/537.36" etag="IcmiD9pRb7fzkDG9Bmv3" version="22.1.16" type="device">
  <diagram name="Page-1" id="6133507b-19e7-1e82-6fc7-422aa6c4b21f">
    <mxGraphModel dx="989" dy="509" grid="1" gridSize="10" guides="1" tooltips="1" connect="1" arrows="1" fold="1" page="1" pageScale="1" pageWidth="1100" pageHeight="850" background="none" math="0" shadow="0">
      <root>
        <mxCell id="0" />
        <mxCell id="1" parent="0" />
        <mxCell id="Y9fvg7t25w-YGsl2fPfS-5" style="edgeStyle=orthogonalEdgeStyle;rounded=0;orthogonalLoop=1;jettySize=auto;html=1;exitX=0.5;exitY=1;exitDx=0;exitDy=0;entryX=0.5;entryY=0;entryDx=0;entryDy=0;" edge="1" parent="1" source="Y9fvg7t25w-YGsl2fPfS-1" target="Y9fvg7t25w-YGsl2fPfS-2">
          <mxGeometry relative="1" as="geometry" />
        </mxCell>
        <mxCell id="Y9fvg7t25w-YGsl2fPfS-1" value="Start" style="ellipse;whiteSpace=wrap;html=1;" vertex="1" parent="1">
          <mxGeometry x="510" y="30" width="80" height="50" as="geometry" />
        </mxCell>
        <mxCell id="Y9fvg7t25w-YGsl2fPfS-6" style="edgeStyle=orthogonalEdgeStyle;rounded=0;orthogonalLoop=1;jettySize=auto;html=1;entryX=0.5;entryY=0;entryDx=0;entryDy=0;" edge="1" parent="1" source="Y9fvg7t25w-YGsl2fPfS-2" target="Y9fvg7t25w-YGsl2fPfS-3">
          <mxGeometry relative="1" as="geometry" />
        </mxCell>
        <mxCell id="Y9fvg7t25w-YGsl2fPfS-2" value="Query available offers for current week for restaurant" style="rounded=0;whiteSpace=wrap;html=1;" vertex="1" parent="1">
          <mxGeometry x="490" y="100" width="120" height="60" as="geometry" />
        </mxCell>
        <mxCell id="Y9fvg7t25w-YGsl2fPfS-8" style="edgeStyle=orthogonalEdgeStyle;rounded=0;orthogonalLoop=1;jettySize=auto;html=1;entryX=1;entryY=0.5;entryDx=0;entryDy=0;" edge="1" parent="1" source="Y9fvg7t25w-YGsl2fPfS-3" target="Y9fvg7t25w-YGsl2fPfS-7">
          <mxGeometry relative="1" as="geometry" />
        </mxCell>
        <mxCell id="Y9fvg7t25w-YGsl2fPfS-11" value="No" style="edgeLabel;html=1;align=center;verticalAlign=middle;resizable=0;points=[];" vertex="1" connectable="0" parent="Y9fvg7t25w-YGsl2fPfS-8">
          <mxGeometry x="-0.64" y="1" relative="1" as="geometry">
            <mxPoint x="-1" y="-11" as="offset" />
          </mxGeometry>
        </mxCell>
        <mxCell id="Y9fvg7t25w-YGsl2fPfS-14" style="edgeStyle=orthogonalEdgeStyle;rounded=0;orthogonalLoop=1;jettySize=auto;html=1;entryX=0;entryY=0.5;entryDx=0;entryDy=0;" edge="1" parent="1" source="Y9fvg7t25w-YGsl2fPfS-3" target="Y9fvg7t25w-YGsl2fPfS-17">
          <mxGeometry relative="1" as="geometry">
            <mxPoint x="650" y="210" as="targetPoint" />
          </mxGeometry>
        </mxCell>
        <mxCell id="Y9fvg7t25w-YGsl2fPfS-15" value="Yes" style="edgeLabel;html=1;align=center;verticalAlign=middle;resizable=0;points=[];" vertex="1" connectable="0" parent="Y9fvg7t25w-YGsl2fPfS-14">
          <mxGeometry x="-0.232" y="1" relative="1" as="geometry">
            <mxPoint y="-9" as="offset" />
          </mxGeometry>
        </mxCell>
        <mxCell id="Y9fvg7t25w-YGsl2fPfS-3" value="Is array empty?" style="rhombus;whiteSpace=wrap;html=1;" vertex="1" parent="1">
          <mxGeometry x="500" y="180" width="100" height="60" as="geometry" />
        </mxCell>
        <mxCell id="Y9fvg7t25w-YGsl2fPfS-10" style="edgeStyle=orthogonalEdgeStyle;rounded=0;orthogonalLoop=1;jettySize=auto;html=1;" edge="1" parent="1" source="Y9fvg7t25w-YGsl2fPfS-7" target="Y9fvg7t25w-YGsl2fPfS-9">
          <mxGeometry relative="1" as="geometry" />
        </mxCell>
        <mxCell id="Y9fvg7t25w-YGsl2fPfS-7" value="Return available array" style="rounded=0;whiteSpace=wrap;html=1;" vertex="1" parent="1">
          <mxGeometry x="350" y="180" width="120" height="60" as="geometry" />
        </mxCell>
        <mxCell id="Y9fvg7t25w-YGsl2fPfS-9" value="End" style="ellipse;whiteSpace=wrap;html=1;" vertex="1" parent="1">
          <mxGeometry x="350" y="360" width="120" height="80" as="geometry" />
        </mxCell>
        <mxCell id="Y9fvg7t25w-YGsl2fPfS-19" value="" style="edgeStyle=orthogonalEdgeStyle;rounded=0;orthogonalLoop=1;jettySize=auto;html=1;" edge="1" parent="1" source="Y9fvg7t25w-YGsl2fPfS-17" target="Y9fvg7t25w-YGsl2fPfS-18">
          <mxGeometry relative="1" as="geometry" />
        </mxCell>
        <mxCell id="Y9fvg7t25w-YGsl2fPfS-20" value="Yes" style="edgeLabel;html=1;align=center;verticalAlign=middle;resizable=0;points=[];" vertex="1" connectable="0" parent="Y9fvg7t25w-YGsl2fPfS-19">
          <mxGeometry x="-0.0889" relative="1" as="geometry">
            <mxPoint x="10" as="offset" />
          </mxGeometry>
        </mxCell>
        <mxCell id="Y9fvg7t25w-YGsl2fPfS-28" value="" style="edgeStyle=orthogonalEdgeStyle;rounded=0;orthogonalLoop=1;jettySize=auto;html=1;" edge="1" parent="1" source="Y9fvg7t25w-YGsl2fPfS-17" target="Y9fvg7t25w-YGsl2fPfS-27">
          <mxGeometry relative="1" as="geometry" />
        </mxCell>
        <mxCell id="Y9fvg7t25w-YGsl2fPfS-29" value="No" style="edgeLabel;html=1;align=center;verticalAlign=middle;resizable=0;points=[];" vertex="1" connectable="0" parent="Y9fvg7t25w-YGsl2fPfS-28">
          <mxGeometry x="0.0229" y="1" relative="1" as="geometry">
            <mxPoint y="-9" as="offset" />
          </mxGeometry>
        </mxCell>
        <mxCell id="Y9fvg7t25w-YGsl2fPfS-17" value="&lt;div style=&quot;&quot;&gt;&lt;span style=&quot;font-size: 8px; background-color: initial;&quot;&gt;Did restaurant&amp;nbsp;&lt;/span&gt;&lt;/div&gt;&lt;div style=&quot;&quot;&gt;&lt;span style=&quot;font-size: 8px; background-color: initial;&quot;&gt;update the offers&amp;nbsp;&lt;/span&gt;&lt;/div&gt;&lt;div style=&quot;&quot;&gt;&lt;span style=&quot;font-size: 8px; background-color: initial;&quot;&gt;for current week?&lt;/span&gt;&lt;/div&gt;" style="rhombus;whiteSpace=wrap;html=1;align=center;" vertex="1" parent="1">
          <mxGeometry x="680" y="170" width="140" height="80" as="geometry" />
        </mxCell>
        <mxCell id="Y9fvg7t25w-YGsl2fPfS-22" value="" style="edgeStyle=orthogonalEdgeStyle;rounded=0;orthogonalLoop=1;jettySize=auto;html=1;" edge="1" parent="1" source="Y9fvg7t25w-YGsl2fPfS-18" target="Y9fvg7t25w-YGsl2fPfS-21">
          <mxGeometry relative="1" as="geometry" />
        </mxCell>
        <mxCell id="Y9fvg7t25w-YGsl2fPfS-18" value="Start Processing information" style="whiteSpace=wrap;html=1;" vertex="1" parent="1">
          <mxGeometry x="690" y="290" width="120" height="30" as="geometry" />
        </mxCell>
        <mxCell id="Y9fvg7t25w-YGsl2fPfS-25" value="" style="edgeStyle=orthogonalEdgeStyle;rounded=0;orthogonalLoop=1;jettySize=auto;html=1;" edge="1" parent="1" source="Y9fvg7t25w-YGsl2fPfS-21" target="Y9fvg7t25w-YGsl2fPfS-24">
          <mxGeometry relative="1" as="geometry" />
        </mxCell>
        <mxCell id="Y9fvg7t25w-YGsl2fPfS-21" value="Store in DB" style="whiteSpace=wrap;html=1;" vertex="1" parent="1">
          <mxGeometry x="690" y="340" width="120" height="30" as="geometry" />
        </mxCell>
        <mxCell id="Y9fvg7t25w-YGsl2fPfS-26" style="edgeStyle=orthogonalEdgeStyle;rounded=0;orthogonalLoop=1;jettySize=auto;html=1;entryX=1;entryY=0.5;entryDx=0;entryDy=0;" edge="1" parent="1" source="Y9fvg7t25w-YGsl2fPfS-24" target="Y9fvg7t25w-YGsl2fPfS-9">
          <mxGeometry relative="1" as="geometry" />
        </mxCell>
        <mxCell id="Y9fvg7t25w-YGsl2fPfS-24" value="Return new array" style="whiteSpace=wrap;html=1;" vertex="1" parent="1">
          <mxGeometry x="690" y="387.5" width="120" height="25" as="geometry" />
        </mxCell>
        <mxCell id="Y9fvg7t25w-YGsl2fPfS-30" style="edgeStyle=orthogonalEdgeStyle;rounded=0;orthogonalLoop=1;jettySize=auto;html=1;entryX=0.5;entryY=1;entryDx=0;entryDy=0;" edge="1" parent="1" source="Y9fvg7t25w-YGsl2fPfS-27" target="Y9fvg7t25w-YGsl2fPfS-9">
          <mxGeometry relative="1" as="geometry">
            <Array as="points">
              <mxPoint x="930" y="460" />
              <mxPoint x="410" y="460" />
            </Array>
          </mxGeometry>
        </mxCell>
        <mxCell id="Y9fvg7t25w-YGsl2fPfS-27" value="Return empty array with error" style="whiteSpace=wrap;html=1;" vertex="1" parent="1">
          <mxGeometry x="870" y="180" width="120" height="60" as="geometry" />
        </mxCell>
      </root>
    </mxGraphModel>
  </diagram>
</mxfile>
